User Type,Username,Date,Text
,jgabriel,2007-12-09T05:30Z,http://www.imdb.com/title/tt0043949/
,christakitta,2008-04-08T07:31Z,seeds please.... n Thanks for this movie... I love it...
,Panzerfaust1974,2008-05-31T09:48Z,"thank you, a fine one"
,c3k1,2010-04-06T09:57Z,"Quality could be better. Seems like a TVrip or VHSrip. It is broken in two similar files. Here's the info for the first half:

Format                           : AVI
Format/Info                      : Audio Video Interleave
File size                        : 700 MiB
Duration                         : 1h 25mn
Overall bit rate                 : 1 143 Kbps
Writing application              : VirtualDubMod 1.5.4.1 (build 2178/release)
Writing library                  : VirtualDubMod build 2178/release

Video
ID                               : 0
Format                           : MPEG-4 Visual
Format profile                   : Advanced Simple@L5
Format settings, BVOP            : Yes
Format settings, QPel            : No
Format settings, GMC             : No warppoints
Format settings, Matrix          : Default (H.263)
Muxing mode                      : Packed bitstream
Codec ID                         : XVID
Codec ID/Hint                    : XviD
Duration                         : 1h 25mn
Bit rate                         : 943 Kbps
Width                            : 688 pixels
Height                           : 512 pixels
Display aspect ratio             : 4:3
Frame rate                       : 23.976 fps
Resolution                       : 8 bits
Colorimetry                      : 4:2:0
Scan type                        : Progressive
Bits/(Pixel*Frame)               : 0.112
Stream size                      : 578 MiB (83%)
Writing library                  : XviD 1.2.0.dev47 (UTC 2006-11-01)

Audio
ID                               : 1
Format                           : AC-3
Format/Info                      : Audio Coding 3
Codec ID                         : 2000
Duration                         : 1h 25mn
Bit rate mode                    : Constant
Bit rate                         : 192 Kbps
Channel(s)                       : 2 channels
Channel positions                : L R
Sampling rate                    : 48.0 KHz
Stream size                      : 118 MiB (17%)
Alignment                        : Split accross interleaves
Interleave, duration             : 83 ms (2.00 video frames)
Interleave, preload duration     : 500 ms
Language                         : English / English / English"
